<svg viewBox="0 0 132.33 227.44" xmlns="http://www.w3.org/2000/svg"><g fill="#fff"><path d="m263.91 327.83a2.33 2.33 0 0 1 0-.87c1.12-.74 2.17-.25 3.27.12 1.43.48 2.42-.32 2.35-1.63-.19-3.51.94-7.24-1.45-10.45-.48-3.32.33-6.54.81-9.78.32-2.12.58-4.29-1.12-6.07-1.08-2.39-4.8-.59-5.56-3.51-.09-2.08-1.29-3.85-1.67-5.86a2.5 2.5 0 0 1 .77-2.26c3.36-2.16 3.1-4.43.57-7.09-1.87-2-1.45-4.2.63-5.52 3.88-2.45 4.35-5 1.14-8.28-.32-.33-.24-.94-.18-1.44.93-1.62 2.91-2.85 1.93-5.2a34.41 34.41 0 0 1 -.87-10.29c.6-5.86-1.16-11.27-2.69-16.75 3.51-3 9.4-.58 10.49 4.41.46 2.07.56 4.22 1.56 6.15a4 4 0 0 1 .48 1.6c-1 4.19.15 8.26.76 12.36a5.31 5.31 0 0 1 .11 1.54 21.49 21.49 0 0 1 -1.1 2.93c-.71 3.18.19 6.29.73 9.33 1 5.34.2 10.63-.17 15.88-.18 2.7-.34 5.21.58 7.75a2.51 2.51 0 0 1 -.22 2.23c-.41 3.45-.44 7-1.33 10.31-1.44 5.31.18 9.23 3.93 12.95 7.32 7.25 7.3 7.57 2.81 16.67a16.79 16.79 0 0 0 -1.86 7.63c0 .89-.14 3.4-1.45 1.83-4.17-5-11-7.64-13.23-14.39a4 4 0 0 1 -.06-1 3.41 3.41 0 0 1 .04-3.3z" transform="translate(-184.51 -141.58)"/><path d="m271.87 244.92c-1.12-1.95-.68-4.14-.95-6.22-.54-4.06-3.58-6-8-5.22-4.09 1.84-5.47-2.65-8.35-3.55a1.94 1.94 0 0 0 -1.6 1.14 10.08 10.08 0 0 0 -.57 3c-1 2.7-.3 6.09-3.22 8a13 13 0 0 0 -3 6.1 71.49 71.49 0 0 1 -5.43 17c-1.48 3.11.65 6.31-.75 9.29a10.61 10.61 0 0 1 -1.34 6.5c-.47 2.78 0 5.79-2 8.18a22.55 22.55 0 0 0 -1.44 2.41c-.89 2.21-1.79 4.28-4.74 4.4-2.51.1-3.65-1.16-4.13-3.38.49-2.82.71-5.63-.41-8.38a4.78 4.78 0 0 0 -1.28-1.87 2.63 2.63 0 0 1 -.67-.66s-.28-.35-.32-.31-.3-.32-.34-.28-.32-.32-.37-.29c-.28-.18-.53-.39-.81-.58a16.57 16.57 0 0 0 -2-1.11 7.66 7.66 0 0 0 -1.24-.28c-2.06-1-3.83-2.22-4.33-4.64a3.36 3.36 0 0 1 0-1.14c0-.17.06-.35.07-.52s.08-.34.1-.5 0-.33.05-.5c-.05-.36-.07-.71-.09-1.07a2.69 2.69 0 0 1 .9-2.19 3.1 3.1 0 0 1 1.82-.64c3.21-.3 6.13-2.28 9.48-1.65.36-.13.73-.22 1.09-.34.49-.31.92-.71 1.38-1.06 1.91-2.45.07-4.75-.43-7a12.06 12.06 0 0 1 -.22-6.09c.7-2.26 2.19-4.43 4.83-1.45 1.75 1.58 0 5.66 1.9 5.52 2.46-.17 2.46-3.91 3.2-6.18 2.11-6.49 4.59-12.84 6.82-19.28.34-3.25.37-6.54 1.21-9.73 1.12-3.58 1.84-7.25 2.9-10.84.83-2.79 2.28-5 5.39-5.65a3.61 3.61 0 0 1 3.29 2.35 7.47 7.47 0 0 1 .41 2.3c-4.21 12.33-4.2 12.35 8.08 20.52 2.21.18 3.43 2 5.15 3 1.21 4.74 5.81 4.33 9.06 6 1.37.83 2.77.51 4.18.17a4.5 4.5 0 0 0 .81-.26 26.92 26.92 0 0 1 2.49-1.59c2.68-4.6 3.54-4.7 7.13-.77.22.84.22 1.83-.5 2.26-2.4 1.42-1.84 3.11-1.41 5.44.54 2.92 3.25 6.74-1.62 8.84a3.46 3.46 0 0 1 -2.75-.75 6.43 6.43 0 0 0 -3.1-1.23c-2.05-.62-2.9-2.44-4.15-3.95-1.76-2.13-3.1-5.2-6.81-4.38-1.11 1.05-1.16 3.26-3.37 3.11z" transform="translate(-184.51 -141.58)"/><path d="m271.91 232.06c-2.2 1-4.1.18-5.92-1-1.53-6.25-5.19-11.57-7.63-17.43a19 19 0 0 1 -1.4-4.74l.16-2c4.4-3.88 3.89-8.07.77-12.43 1.19-14.39-2.31-28.12-5.79-41.86.09-1.93-.6-4 1-5.69.91-.93.75-2.11.7-3.24-.08-1.59 1-1.88 2.22-2 1.37-.15 2.75-.06 3 1.65.39 2.24.62 4.51.92 6.77-1.74 4.48 2.6 6.63 3.82 10a14.14 14.14 0 0 1 2.47 5.87c.52 4.52 2.38 3.25 4.55 1.23a6.11 6.11 0 0 1 3.2-1l5.1 11.6a3.89 3.89 0 0 0 .75 1.25 3.51 3.51 0 0 1 .25.95c.44 1 .94 2.08-.95 2a2.29 2.29 0 0 1 -.14-.78c-.26-.35-.52-.7-.76-1.06-1-2.26-2.06-4.53-3.07-6.8-.4-.91-.68-2.09-1.79-2.16s-1.44 1.2-2 2c-6.72 8.87-5.09 18.69-3.22 28.53a207.86 207.86 0 0 1 3.76 30.34z" transform="translate(-184.51 -141.58)"/><path d="m274.79 294.85c-3.37-1.34-2.38-4.63-2.22-6.75.56-7.84.83-15.61-.4-23.4a5.26 5.26 0 0 1 .93-3.8c.52-.54.31-1.43.92-1.94a3.05 3.05 0 0 0 .05-.8c0-.25 0-.51 0-.77q0-.79 0-1.59c.11-1.64-.27-3.3.27-4.92 2.9-1.78 2.94.4 3.1 2.28a54.64 54.64 0 0 1 .11 6.65 6.43 6.43 0 0 1 -.43 2.26c-1.69 3-1.22 5.33 2.29 6.56a4 4 0 0 1 .9 1.06c1.4 3.85 3.78 7.09 2.63 12-.74 3.2 4 4.44 7.23 5.19 5 .94 6.54 5.11 7.93 9.13 2.13 6.14 2.36 12.55 2 19-3.18.67-3.49-1.77-4-3.82-.8-3.38-1.37-6.81-2.2-10.18-.12-.51-.26-1-.42-1.52.11.48.25 1 .38 1.45 1.16 4.57 1.94 9.23 3.07 13.81a25.07 25.07 0 0 1 -.33 14 53.45 53.45 0 0 0 -3 20.7c.13 2.17.74 5.71-3.49 5.7-2.16-5.86-4.65-11.68-1.24-17.95a3.77 3.77 0 0 0 0-2.93c-1.41-4-1-7.92.17-12 1.5-5.15-.19-10.26-1.73-15.14a51.13 51.13 0 0 0 -5.77-12.55 6.45 6.45 0 0 1 -.48-1.22 2.19 2.19 0 0 0 -1.54-1.72c-2.52-.16-3.78 1.28-4.73 3.21z" transform="translate(-184.51 -141.58)"/><path d="m253.05 146.88c.72 1.35 2.06 2.59.74 4.29-3.18 1.27-4.27 4.41-6.12 6.87-10.28 3.82-20.22 17.55-20.43 28.25a10.32 10.32 0 0 1 -1.32 5.2c-2.1 3.44-3.74 6.81-2.58 11.12a5.41 5.41 0 0 1 -2 5.4c-3.42 2.41-4.37 5.08-2.4 8.82a4.47 4.47 0 0 1 0 2.47 4.7 4.7 0 0 1 -.89 2.06c-1.9 1.92-2.49 0-3.33-1.14-3.92-5.33-4.11-10.67-.34-16.25a14.42 14.42 0 0 0 2-9.93c-1-8.7 2.41-16.11 6.5-23.3a91.32 91.32 0 0 1 8.63-12.21c.37-.45 1-.82.84-1.57a4.55 4.55 0 0 0 -1.54 1.21c-3.55 3.81-5.53 8.67-8.65 12.77-2.28 3-2.82 3.18-5.15 1.11 2.46-7.88 5.9-15.19 12-21 3.3-3.16 7.15-5.18 11.76-3.95 4.23 1.12 8.23-2.02 12.28-.22z" transform="translate(-184.51 -141.58)"/><path d="m215.12 219.91c.56.53 1.06 1.2 2 .9 3.91-.12 3.91 3 4.21 5.47.49 4 2.47 4.6 5.86 3.32a157.46 157.46 0 0 0 15.81-7.3c1.93-1 3.9-2.09 6-.31-.59 2.67-1.17 5.35-1.76 8-2.8 1.2-2.14 5.85-6 6-2.29-.43-2.49-2-2.24-3.87 0 .06-.19-.26-.24-.2s-.36-.06-.41 0a88.76 88.76 0 0 1 -14.6 6.66 9.28 9.28 0 0 0 -5.17 5 10.75 10.75 0 0 1 -5.31 5.6 37.11 37.11 0 0 1 -11.59 4.2c-6 .86-9.92-3.66-8-9.08.43-.87 1.32-1.64 1-2.72-.76-2.65.11-4.45 2.89-4.52 2.39-.06 5.61-1.43 6.5 2.58a3.23 3.23 0 0 1 -.18 1.22 10.34 10.34 0 0 0 .24-1.46 31.52 31.52 0 0 0 -.25-10.3 2.65 2.65 0 0 1 1.37-2.51c.94-.63 1.5-1.75 2.63-2.16a2.4 2.4 0 0 1 1.35.18c.92 2 1.65 4.17 4.42 4.18a4 4 0 0 1 .78.69 4.89 4.89 0 0 0 .56.46c0-.05.29.08.28 0s.24-.19.22-.24a7.71 7.71 0 0 1 .45-1.88c.47-1 .91-1.91.29-3l-1.26-3.73c-.52-.43-.44-.85.15-1.18z" transform="translate(-184.51 -141.58)"/><path d="m215.12 219.91c-.07.42-.15.84-.22 1.27-4.92-5.64-6.75-11.42-2.05-18.35 2.24-3.31 2.36-7.46 1.55-11.53a28.4 28.4 0 0 1 2.66-19.25c4.35-2.09 5.64-6.62 7.95-10.27s4.93-7.08 8.93-9.08c1.34-.67 3.22-1.32 4.23-.22 1.48 1.61-.76 2.53-1.54 3.53-6.42 8.26-13.26 16.22-16.39 26.53-1.36 4.47-2.54 8.94-2.26 13.68a13.66 13.66 0 0 1 -1.95 8.61c-3.31 4.9-3.34 9.89-.91 15.08z" transform="translate(-184.51 -141.58)"/><path d="m282 293c4.5 2.06 5.11 6.84 6.55 10.59 2.94 7.66 5.81 15.67 1.05 23.86a6.44 6.44 0 0 0 -.33 4.38c.17 1 .78 2.13.46 2.9-2.8 6.82-.63 13.54.23 20.29l-.17.57a1.59 1.59 0 0 1 -1.54.69l-.44-.41a13 13 0 0 0 -1.08-7.79 6.59 6.59 0 0 1 -.4-5.36c2.44-6.62.67-12.79-1.76-18.92-3.29-8.29-5.55-16.76-4.48-25.81 1.45-1.35-1.38-4.34 1.91-4.99z" transform="translate(-184.51 -141.58)"/><path d="m290.1 286.9c-4.41.7-7.24-3.78-11.7-3.49-1.62.11-1.44-2.39-.34-3.08 3.68-2.28 2.9-4.67.77-7.44-.67-.87-.09-1.92.19-2.87a7.21 7.21 0 0 1 1.09-.74 13.07 13.07 0 0 0 -1.12.7c-5.29-.74-5.59-1.34-4-8a4 4 0 0 0 .91-1.14c-.07-2.94-.13-5.87-.2-8.81 0-.08-.23-.21-.35-.21s-.28.12-.42.19c-3.61-1.19-1.14-4.85-2.8-6.84l-.29-.26c1-2-.05-4 .27-6 5.2 1.8 8.85 5.07 10.08 10.63-1.8 2.88-2.68 5.88-1.05 9.17.26.52-.18 1.33.66 1.6a3.65 3.65 0 0 0 -.33-1.92c-.65-2.3-3.35-4.87.84-6.57 3.57.14 4.65 3.38 6.71 5.4.54 3.61 1.13 7.21-.07 10.8l-.95 13.98-3.56.7c.41 1.6 1.81 2.21 3 3a26.46 26.46 0 0 0 2.66 1.2z" transform="translate(-184.51 -141.58)"/><path d="m247.07 240.16c1.24-2.1 3.77-3.4 3.8-6.22 1.72 1 1.8 2.79 1.55 4.35-1 6.4.45 12.77 0 19.14-1.73 7.19.74 12.43 6.48 17.16 2.39 2 5.14 5.74 2.23 10.07a3.7 3.7 0 0 0 .87 5.34c2.32 1.06 2 3.12 2 5.1-1.84 1.3-4.15 1.58-6 2.77-1.6 1.48-3.28 1.29-5 .22-1.45-1.59-2.47-3.71-4.92-4.1-1.53-.33-2.89-.91-3.53-2.49a4.73 4.73 0 0 1 -.64-1.34c.78-2.66-1.64-4.71-1.43-7.28.85-2.85 2.27-4.56 5.73-3.79 2.83.63 3.25-.94 1.85-3.1-1.53-2.34-2.87-4.8-4.25-7.22a11.87 11.87 0 0 1 -1.55-9.05c.09-6.72 3.19-12.87 2.81-19.56z" transform="translate(-184.51 -141.58)"/><path d="m290 355a5.3 5.3 0 0 0 1.95-4.88 67.09 67.09 0 0 1 2-19.22c2.92-12-.58-23.35-4.2-34.64-.42-1.33-1.92-3.16-.5-4s3.16.71 4.16 2a19.26 19.26 0 0 1 3.57 9.71c.43 3.81 1 7.59 3 11a29.26 29.26 0 0 1 -2.85 17.43c-2.49 4.77-2.79 9.86-2.19 15.06a10.46 10.46 0 0 1 -3.64 9.81 31 31 0 0 0 -7.67 10.35c-.25.54-1 1.42-1.2 1.34-1.09-.43-.54-1.4-.24-2 1.82-3.73 3.74-7.41 5.62-11.11l.42.31c1 .21 1.28-.66 1.76-1.22z" transform="translate(-184.51 -141.58)"/><path d="m195.11 245c-.12 2.12-1.38 4 3 3.8 4.89-.25 9.53.28 13.86-1.85a5.15 5.15 0 0 1 2 2.75c.25 2.45-1.12 4.09-2.83 5.55-2.72 2.09-3.63 4.55-1.44 7.6-.66 2.18-2.4 2.91-4.41 3.29a1.8 1.8 0 0 1 -1.76-1.08c-.87-3.37-5-6.32-6.22-6.41-3.63-.24.91-4.39-2.29-3.62l-.02-.03c-1.55-2.39-4.22 1.21-6.08-1.26-1-1.31-2.81-1.88-.88-3.67 1.7-1.57 2.29-2.54-.74-3.3-4.8-1.21-1.71-5.09-2.26-7.75-.24-.22-.32-.44-.23-.65s.16-.33.24-.33l1.13-1.13c1.71-3.31 4.57-1.48 7-1.48.61 0 1.35 1.12 1.1 1.44-2.4 3.03 2.06 5.28.83 8.13z" transform="translate(-184.51 -141.58)"/><path d="m221 304c-2.58 1-2.61 6.34-7.15 4.11-.88-.43-1.67 2.2-2.73.75-.43-.6.48-2.14.73-3.27.2-.86 1.74-1.18 1-2.42-.68.46-1.34 1-2 1.36s-1.86 1.22-2.09 1c-1-.91.72-1.2.66-1.79-.24-2.46-1.31-.19-1.95-.2-.8 0-1.64 1.68-2.41.31-.46-.8.84-1.22 1.43-1.74s1.33-.47 1-1.37c0-.1-.59-.07-.9 0-8.28 1.27-3.2-2.39-1.72-4.7a12.56 12.56 0 0 1 .94-1.16 1.18 1.18 0 0 0 .53-1.1 3.78 3.78 0 0 1 -.26-1.32 3.11 3.11 0 0 1 .54-1.25c2.19-.78 3.92-3.69 6.75-1.44a2.37 2.37 0 0 1 .36 1.21c-.52.76-.18 1.05.62 1.11.65 2.43.66 2.45 3.11 1.14 1.64-.88 3.09-.85 4.3.71a20.06 20.06 0 0 0 2 5.07c.72 1.09 3.43.18 2.63 2.7-.16.52-.13.49 0-.12.33-1.27-.65-2.6.21-3.89s2.31-2.17 3.84-1.58c2.74 1.06 2.27 3.26 1.48 5.42a2.24 2.24 0 0 1 -1.2.66c-2.19 1.27-1.34 3.46-1.64 5.32-.42 2.59-.18 4.44-4.34 5.47-5.14 1.27-3.73-1.69-4-3.64-.28-1.74.16-3.59.29-5.39l.3-.29z" transform="translate(-184.51 -141.58)"/><path d="m289 238-3-.06c-.13-1.95 2.89-4.13-.51-5.87-.83-.43-.58-1.28.34-1.24 6 .26 5.71-5.49 8-8.62 1.48-2 1.47-5.83 4.69-1.08 1 1.45 4.15 1.63 6.38 2 2.81.4 3.88 2.36 3.56 4.48s-1.62 3.72 2.14 4c3.46.29 3.59 3 2.43 5.91a6 6 0 0 0 .1 2.36 7.16 7.16 0 0 1 -1.22 3.36 3 3 0 0 1 -2 .87c-5.09-.14-6.54-4.69-9.28-7.68a8.32 8.32 0 0 1 .18-2.25c-1.69-.74-3.57-1.21-4.51-3a2.86 2.86 0 0 0 -.95-.22 10 10 0 0 0 -1 .47c-2.11 1.91-5.27 2.97-5.35 6.57z" transform="translate(-184.51 -141.58)"/><path d="m195.11 245a2.8 2.8 0 0 0 -2.81-.44c-.6.21-1.67.63-1.76.49-.58-1 .48-1.34.91-2s2-1.85.48-2.31c-4-1.25-2.89-1.75 0-2.88 1.49-.57.44-1.13-.47-1.27-1.8-.28-3.62-.82-5.36.22-.49-.59-1.67-1.19-1.1-1.92 1.31-1.67 3.29-.82 5-.82.42-.15.48-.39.23-.76-.16-.22-.25-.35-.32-.35-.45-2 1-2.62 2.46-2.92 3.24-.65 4.07-2.92 4.18-5.77a3.35 3.35 0 0 1 .64-1.07 8.61 8.61 0 0 1 1.46-1.05 4.09 4.09 0 0 1 1.06-.73 9.22 9.22 0 0 1 6.22-.76c2.07.59 4.21 1.4 3 4.37l-1-.09c-1.29.72.42 2.56-1.18 3.17-2.58 3.37.78 7.15-.74 10.8a12.89 12.89 0 0 0 -1.34 4 1.79 1.79 0 0 1 -2.42 1.77c-2.34-1 .51-1.38.46-2.26-.08-1.4-.42-4.12-1.44-3-1.41 1.59-5.36-2.91-4.4 2.12.29 1.46-.99 2.46-1.76 3.46z" transform="translate(-184.51 -141.58)"/><path d="m246 290-.05 1.06c-.25 1.24-.41 2.55-2.17 2.43l-.55.13c-.42.38-.78.78-.3 1.37.41 1.6.9 3.18 1.19 4.8.19 1 1.31 2.33 0 3.12-.94.57-1.67-.75-2.49-1.23a13.38 13.38 0 0 1 -1.14-.84 6.07 6.07 0 0 0 -.3 1.75c.12 1 .55 1.91.68 2.88.19 1.44 1.55 3.16.47 4.21s-2.48-1.61-3.16-1.23c-3.85 2.16-3.75-1.16-4.72-3.07-.21-.41-.79-.92-1-.38a7.68 7.68 0 0 0 -.24 2.39c-.1 1 1.23 2.75-.16 3s-1-1.77-1.11-2.82c-.19-1.76-1.14-3.52-.24-5.33l.4-.39c.51-4.06 2.29-7.81 2.83-11.85l1-1.95c3.28.55 2.19-3.62 4.48-4.16 3.58.58 6.17 2.18 6.58 6.11z" transform="translate(-184.51 -141.58)"/><path d="m208.94 225.08c-1.37-1.37-2.35-3.89-4.63-.61-1 1.38-2.28-3.45-4.17-.57l-.3.25-1.84-.15a4.77 4.77 0 0 1 -.49-.77 3.71 3.71 0 0 0 .49.77c-.1.48-.39 1-.28 1.43 1.83 7.08-2.4 7.91-7.77 7.58-1.8-1.1-2.08-2.85-2-4.75 2.46 1 2.51-3.87 5.66-2.15 1.92 1 .92-.57.56-1.36-2.07-4.51-.6-6.71 4.42-6.85.9 0 2.38-.72 2.67-.62 2.66.87 4.18-3.6 5.64-2a17.4 17.4 0 0 1 3.86 8.38c1 5.32 3.07 3.21 5.42 1.29.26 1.06.51 2.11.77 3.17-.89 1.53-1.73 3.16-4 1.93-2.2-.97-3.95-2.3-4.01-4.97z" transform="translate(-184.51 -141.58)"/><path d="m289 268q-.5-5.52-1-11.05c0-.22.06-.45.08-.68.52-2.79 3.31-3.56 4.85-5.45 4.75 1.85 9.74.5 14.59 1.06a4.47 4.47 0 0 1 1 1 16.38 16.38 0 0 1 2 1.39c3.25 3 3 4.85-1.33 5.86-3.56.83-6.83 1.43-8.58 5.18-.68 1.47-1.11-.2-1.66-.51-1.29-.71-.8-6-4.25-1.65-.33.41-1.25-1.62-1.92-2.5-.39-.5-.91-1.35-1.3-1.31-1.19.12-.61 1.24-.78 2-.55 2.19-1.14 4.42-1.7 6.66z" transform="translate(-184.51 -141.58)"/><path d="m279.12 181.91c.31-.68.63-1.35.95-2 2.8 6.65 6.17 13.08 8.13 20.07.4 3.08 0 6.47 4.17 7.7 1 .29 1.59 2 .68 3.4-.66 2.38-1.38 4.75-2 7.16-.38 1.53.36 3.7-1.62 4.3s-2.77-1.45-4-2.47a17.09 17.09 0 0 1 -1.63-1.86c0-.16.06-.39 0-.48-4.39-5.25-3.11-10.45.12-15.64 1-1.09.41-2.41.56-3.62-.07 1.1.2 2.23-.3 3.3a.7.7 0 0 1 -1.09.31c.78-7.16-1-13.79-3.97-20.17z" transform="translate(-184.51 -141.58)"/><path d="m203.55 265.08 2.45-.08.58.28c1.09 1.76 2.95 1.61 4.65 1.88a3.1 3.1 0 0 1 1 .92c.34 1.73 2.8 2.82 1.76 4.87-.6 1.19-2.1.36-3.17.6.08-.72 2.49.36 2.91 1.3 1.36 3-2 6.68-6.12 6.55a25 25 0 0 0 -3.08-1.49c-1.2-.45-1.7-2-3.24-1.93a3.37 3.37 0 0 1 -1.87-.42l-.42-.56c0-.29-.07-.59-.1-.89 0-1.11-.48-.4-.82-.22-1.12-.21-2.53-.33-2.33-1.87s1.52-1.84 3-1.62c1.1.15 2.23.11 3.35.15-.27-1.16-1.53-1-2.16-1.65a5.85 5.85 0 0 1 -.7-1.12l2.71-.58a.76.76 0 0 1 .11-1.34c.32.06.63.11.95.15h.38l.06-.38c-.13-.21-.28-.42-.43-.63z" transform="translate(-184.51 -141.58)"/><path d="m268.13 315c3.11 2.15 5.81 10.93 4.22 14a4.55 4.55 0 0 1 -3.91 2.65c-3.08.1-3-3-4.48-4.65-.16-4.57 4.15-7.54 4.17-12z" transform="translate(-184.51 -141.58)"/><path d="m206 278.14 2 1.78c.52 1.52 1.53 1.47 2.78.95 2-.85 3.73-.29 4.48 1.76s-1.16 2.8-2.56 3.63c-.43.25-.9.44-1.34.67a8.09 8.09 0 0 1 -1.32.57c-1.15.33-2.16 1.1-3.4 1.16a5 5 0 0 1 -1.43-.32 2.34 2.34 0 0 1 -1.39-1.58c-1.1-.3-2.21-.56-3.29-.91-.44-.15-1-.43-1.15-.78-.34-1 .56-.94 1.16-1.08.76-.17 2-.07 2-1 0-1.4-1.46-.9-2.32-1.05-1.81-.3-3.32-.59-.58-2.1.79-.44.29-.62-.17-.77s-1.09-.1-1.4-.4c-1.74-1.73-.08-1.55 1-1.67h-.07c1.32 1.29 2.39-.14 3.57-.33 1.1.46 2.71-.09 3.43 1.47z" transform="translate(-184.51 -141.58)"/><path d="m308.47 252.88-1.32.15c-2.31-1.14-4.23-2.45-2.35-5.41 1.84-1.38 1.78-4.85 5.08-4.64l1.13-1c1-1.36 2.79-1.13 4-2l1.79 1.21c-.28.26-.55.52-.81.8-.57.57-.54 1.05-.47 2 .48 6.37 2.22 8.52-7.05 8.89z" transform="translate(-184.51 -141.58)"/><path d="m293.05 211.05c-.67-2.82-2.27-2.09-4-1.12-1.15.65-2.48 1.21-3.66.22-1.48-1.24-.53-2.7 0-4 .88-2.09 1.22-4.43 2.82-6.19 4.62 2.37 7.72 5.42 4.84 11.09z" transform="translate(-184.51 -141.58)"/><path d="m262.16 161c-2.12-3.37-5.75-6.43-2.23-10.95.59 2.14 1.48 4.08 3.67 5 5 2.21 7.88 6.41 10.37 11a2.9 2.9 0 0 1 -1.83 1.89c-2.43.42-3.2-1.68-4.66-2.88-1.72-1.38-2.06-4.68-5.32-4.06z" transform="translate(-184.51 -141.58)"/><path d="m208 294.09-2.25.83c-1.45-.72-3.37-1.11-4.2-2.27-1-1.46-3.93-.3-3.55-2.25.2-1 2.63-1.58 4.06-2.35 1.48.28 2.65-.61 3.94-1.05 1.15-1.12 2.89.1 4-1a2 2 0 0 1 1.95-.4c1.51 1.53.44 2.36-.6 3.66-1.23 1.55-3.83 1.23-4.29 3.53v.25c.32.35.94.39.94 1.05z" transform="translate(-184.51 -141.58)"/><path d="m282 293q-1 2.49-1.91 5c-.78-.73 1.14-3.09-1-2.45-.8.24-4.13-2.72-3.11 1.47a9.1 9.1 0 0 1 -.91.16c-.11-.76-.21-1.52-.32-2.28a7.57 7.57 0 0 1 2.36-6.25c2.39-2.06 4.71-2.65 5.78 1.38-.53.63-.41 1.45-.66 2.15a4.4 4.4 0 0 1 -.23.82z" transform="translate(-184.51 -141.58)"/><path d="m257.92 297.82c.82-3.53 2.07-6.13 6-2.77 3.33-.56 3.33 2 3.86 4.1-3.32.03-7.02 2.51-9.86-1.33z" transform="translate(-184.51 -141.58)"/><path d="m283.11 202.05h.91a9.46 9.46 0 0 1 -1.42 5.18c-1.35 2.32-2.21 4.27 1.41 5.87 2.4 1.06.13 3.38-.13 5.13-5.28-5.08-5.38-7.39-.77-16.18z" transform="translate(-184.51 -141.58)"/><path d="m248 293.94c1.19-2.21 2.3-3.29 3.74-.1a10.68 10.68 0 0 1 1.18 4.2c-2.61-.2-3.82-2.04-4.92-4.1z" transform="translate(-184.51 -141.58)"/><path d="m242.07 291.91c1.58 1.09 2.77.33 3.88-.83l2.07 2.86c-.28.65-.57 1.29-.86 1.93l-.35.3c-1.18-.77-2.15-2.25-3.88-1.16l-1-2.94z" transform="translate(-184.51 -141.58)"/><path d="m315.05 240a7 7 0 0 1 -4 2 3.31 3.31 0 0 1 2.11-2.11z" transform="translate(-184.51 -141.58)"/><path d="m247.16 295.87c.55.53 1.3.94 1.12 1.89 0 .11-.25.28-.34.25-1-.22-.89-1.14-1.12-1.84z" transform="translate(-184.51 -141.58)"/><path d="m206 287c-1.11 1.1-2.29 2-3.94 1.05l1.73-1.29z" transform="translate(-184.51 -141.58)"/><path d="m285.15 238.2a3.51 3.51 0 0 1 -4.15-.2z" transform="translate(-184.51 -141.58)"/><path d="m202.06 267.88c0 .45-.07.89-.11 1.34-.6-.56-1.83-1-1.21-2 .34-.54 1.01.13 1.32.66z" transform="translate(-184.51 -141.58)"/><path d="m263.91 327.83v3.32a3 3 0 0 1 0-3.32z" transform="translate(-184.51 -141.58)"/><path d="m190 233c.5.31 1.21.49.88 1.33a7.9 7.9 0 0 1 -.79-.22z" transform="translate(-184.51 -141.58)"/><path d="m288 282 1.22.47c-.81.73-.82-.25-1.15-.55z" transform="translate(-184.51 -141.58)"/><path d="m198.1 275.91c.34-.19.8-.8.82.21a4.7 4.7 0 0 1 -.82-.21z" transform="translate(-184.51 -141.58)"/><path d="m9.56 114.47-.28.16.15-.28z"/><g transform="translate(-184.51 -141.58)"><path d="m193.94 255.93 1-1 .09.09c-.33.33-.65.67-1 1z"/><path d="m316 242 .81-.8z"/><path d="m203 267 1 1a.61.61 0 0 1 -1.05 0h.06c-.01-.31-.01-.65-.01-1z"/><path d="m185 238v1a3.74 3.74 0 0 1 -.25-.68c-.03-.1.15-.22.25-.32z"/><path d="m278.22 180.07c.25.36.5.71.76 1.06-.26-.35-.51-.7-.76-1.06z"/><path d="m279.82 178.93-.75-1.25z"/><path d="m262 290c-.95.31-2.32 1.89-2.74 0-.52-2.45-1.4-4-4-4.11.67-2.35 3.59-1.53 4.71-3.39 1.37-2.25.32-3.85-1.22-5.24a37.15 37.15 0 0 1 -7-8.38c-1.8-3-3.64-6.08-1.75-9.77 3.15-.07 3.13 2.65 4 4.56.28 1.05.21 2.38 1.89 2.29 2.55-.21 4.46-4.41 7.53-1.21l.55.4c3.12 1 6 2.19 5.5 6.31-.25 2.25-.76 3.9-3.52 4.56-1.79.44-5.82 1.79-.82 4.28.77.39 1.14 1.57 1.68 2.39 3.62 5.53 3.62 5.54-2.9 6a2.16 2.16 0 0 0 -1.91 1.31z"/><path d="m264 264c.83-1.6 2.48-2.15 3.86-3.06 2.06 4.56-1.48 3.81-3.9 4.11-.28-.25-.36-.49-.25-.72s.19-.33.29-.33z"/><path d="m274 259c-.31.65-.61 1.3-.92 1.94.33-.68.63-1.33.92-1.94z"/><path d="m307 249c-3.1 1.45-.45 2.69.15 4-3.47-.14-5.69 3.75-10 2.25-2.73-.93-2.81-2.74-4-4.21a.73.73 0 0 1 -1.13-.17c1.49-2.53.49-5.34-.09-7.61-.94-3.65.2-5.62 3.08-7.25l.32-.59c2.52-.95 4.74-3.49 7.82-1.46l-1.23 2c-.47 2.48.75 6-3.62 6.16a.48.48 0 0 0 -.45.3 2.15 2.15 0 0 1 .9-.4c5.25-.85 8.62 1.74 9.15 7.07 0 0-.25.13-.37.12a1.6 1.6 0 0 1 -.53-.21z"/><path d="m236.94 274c1.05 1.51 2.65 2.59 4.15 1.39 1.8-1.44 4.73-2.5 4.44-5.4-.32-3.22.6-6.1 1.36-9.08-1 6.26 2.42 10.63 6.33 14.82 1.3 1.39 3.37 2.78 1.92 5s-3.85 2.22-6.22 1.42c-1.78-.61-3.73-2.1-4.9.84-2.78 1.58-4-1.45-6-2-.37-.27-.72-.55-1.07-.85.89-2.08-1.35-4.14-.01-6.14z"/><path d="m206 265c-.29-2.68 2.25-1.07 3.09-2a3.54 3.54 0 0 1 4-1.77c5.85 1.37 7.89-2.83 10.26-6.56 1-1.65 1.48-4 4.28-2.64 1.67 5.29 2.9 10.69 4.42 16-1.06 1.48-2.38 1.95-4 1l-11.05-.03c-1.89-.81-4.21 1-5.9-1h-.1a2.51 2.51 0 0 0 -1-.38l-.52-.07-.53-.11c-.34-.14-.67-.29-1-.45-1-.34-1.36-1.23-1.94-2z"/><path d="m233.94 290c.8 1.75 4.22 3.22.1 5.38-2.26 1.18.74 5.46-2.93 6.47-.57-1.23.52-3.62-1.54-3.62-1.7 0-2.55 1.88-2.6 3.72 0 .33 0 .66-.07 1-.15 1.56-.31 3.12-.47 4.68a46.85 46.85 0 0 1 -1-4.76c-.27-2.54-.41-1.31-1.64-.35s-.66-1-.94-1.54c-.67-1.39-1-3.18-3-1.37-.55.49-1.05 1.58-1.93.55-.63-.75-.21-1.57.43-2.19 1.19-1.15 2.58-2.15 2.71-4-1.54-2.24-.17-4.72-.56-7.07 2.3-3.22 4.42-.49 6.34.42s2.65 2.78 1.17 4.85c1.38 2.84 2.95 3.06 4.37.13.41-.91.47-1.91 1.56-2.3z"/><path d="m211.08 268.07c2.11-.57 4.3-1.59 5.9 1l-1 .94v.59s.07.39.1.59a1.52 1.52 0 0 1 -.11 1.67c.87 2.34 3 3.16 5 4.18l3 2.13c-2.94 7.5-5.35 8.89-12.09 7l-1.88-.17c.73-1.41 3.69-1.11 3.12-3-.41-1.37-2.6-.73-4.05-.79s-3.27-.31-1.07-2.28c3.43.22 3.58-3 3.75-4.72.18-1.89-2.1-.24-3.25-.57-.84-.25-1.86-.61-1.79-1.44.11-1.3 1.26-.61 1.94-.49 3 .57 5.06.63 1.78-2.82-.2-.22.41-1.2.65-1.82z"/><path d="m232 268c-3.43-4.8-4.63-10.3-5.08-16-1.77-1.32-1.23-2.89-.43-4.44 3.7-7.07 7.16-14.33 14.5-18.57l.01.01c.35-.31.65-.68 1-1 1.45-1 2.3-.93 1.31 1s-3.57 3.2-2.31 6c-3.49 5.08-7.39 9.94-8.88 16.12-2 1-2.28 1.11-1.94 3.41.44 2.94 1.25 5.83 1.88 8.74.32 1.56 1.2 3.15-.06 4.73z"/><path d="m256.08 266.12c2.06-.86 1.89-2.69 1.57-4.28-2.13-10.57-4.38-21.12-6.59-31.67.2-2.43.58-4.63 3.93-3.23a3.37 3.37 0 0 0 -1 3.17c1.37 10.11 2.8 20.22 6.62 29.79a7.39 7.39 0 0 0 3.39 4.1c0 .35 0 .7-.05 1.06-3-.47-5 .59-5.84 3.6-.64 2.21-1.86 1.87-3.18.57-.05-1.23-.08-2.39 1.15-3.11z"/><path d="m211.91 286.1c1.6-.39 3.2-.82 4.81-1.18s3.69-.45 3.64-2.61c-.06-2.81 2.17-2.45 3.64-3.19h.95c.36.17.5.37.43.61s-.16.38-.26.38a6.94 6.94 0 0 1 .08.77c.6 1.17.84 2.77 2.79 2.27 0 3 4.63 6 0 9-1.23-3.25-2.63-6.2-7-4.15-2 2.53-5 2.72-7.89 3.05-2.54-1.21-4 1.17-6 1.75-2.23-1.89.54-1.78 1.06-2.4 1.18-1.46 2.96-2.4 3.75-4.3z"/><path d="m255 204.89 5.18-9.93a17.72 17.72 0 0 1 1.75 2.33c4.13 7.86 4.12 7.87-4.76 9.57z"/><path d="m289 238c-.65-3.88 3.34-5.69 4-9a1.28 1.28 0 0 1 1.23-.38 7.89 7.89 0 0 1 2.55 2.46c.87 2.16.85 4-1.77 4.9h-.08c-3.13-2.81-4.55-.44-5.93 2.02z"/><path d="m236.92 280.09a7.7 7.7 0 0 0 1 0l.62.23a4.15 4.15 0 0 1 1.35 3.51 4.92 4.92 0 0 1 -.66 1.13c-1.79.52 1.44 7.85-4.23 3.12 3.25-2.03-1-5.89 1.92-7.99z"/><path d="m287.93 257c1-2.3.05-4.66.22-7a1.67 1.67 0 0 1 1.84.08l2 .83 1.13.17c-.96 2.65-2.04 5.17-5.19 5.92z"/><path d="m228 283.11c-1.05.8-2.25 1.83-3.47.72s.28-2 .68-3c2.18-.78 2.99.17 2.79 2.28z"/><path d="m233.1 283.67c-.32 1.16-.75 2-1.79 2.29-.2.05-.82-.56-.81-.85a2 2 0 0 1 1.65-2.06c.28-.05.66.42.95.62z"/><path d="m290 250.07-1.84-.08a3.85 3.85 0 0 1 -1.22-3 3 3 0 0 1 3.06 3.08z"/><path d="m215 269.94a6.64 6.64 0 0 0 1 0 5.54 5.54 0 0 0 1 .91l.06.07a8.37 8.37 0 0 1 .8 1.23 2 2 0 0 0 0 .69l-1.9-.07c-.62-.63-1.24-1.27-1.87-1.9-.31-.87-.09-1.27.91-.93z"/><path d="m221 277 1.29-1.3.37.55z"/><path d="m225 277 .59-.32c-.07.08-.13.18-.22.22a1.29 1.29 0 0 1 -.39.08z"/><path d="m226 279 .58-.3z"/><path d="m217 270.9-1-.91z"/><path d="m217.9 272.2-.8-1.23z"/><path d="m225.12 280.07c-.06-.33-.11-.66-.17-1l1.05-.07z"/><path d="m282.27 292.13.66-2.15z"/><path d="m274 258c.29-.36.57-.73.86-1.1-.25.4-.53.77-.86 1.1z"/><path d="m275.93 260.85-.93 1.15z"/><path d="m247.06 157c.72 9.65-4.75 16.64-10.24 23.57-2.37 3-5.14 5.65-7.6 8.57s-4.88 5.69-5.3 9.42c-.59 5.21-1.45 10-5.74 13.74-1.84 1.58-1.11 4.38-1.3 6.67-2.2-4.3-2.61-8.18 2.23-11.17a5.46 5.46 0 0 0 2.44-5.67c-.73-3.93.49-7.15 2.38-10.4a5.74 5.74 0 0 0 .9-3.79c-2.19-8.87 3.16-14.91 7.9-21 2.62-3.39 6.15-6.07 9-9.28 1.78-1.95 3.43-1.57 5.33-.66z"/><path d="m213 230 4-1.93c0 2.23 3 4.82-.8 6.59a1.22 1.22 0 0 1 -1-.76v-.06c-.77-.93-2.84-.87-2.2-2.88-.08-.31-.06-.63 0-.96z"/><path d="m212.92 231c1.29.53 2.37 1.23 2.2 2.88-2.04.01-3.22-.61-2.2-2.88z"/><path d="m206.78 228.16c.71-.94-1.78-3.07 1.18-3.17-.27 1.1.86 2.73-1.18 3.17z"/><path d="m215.14 233.91 1 .76z"/><path d="m242 228.07-1 1z"/><path d="m290 355c-.49.54.18 2.78-1.76 1.22z"/><path d="m280.11 250 1.92 2.87c-1.24 2.83 1.43 3.74 2.68 5.28s2.48 2.92.8 4.76-3.78 3.4-6.55 2.64c-1.34-.37-1.53-1.59-1.28-2.86.82-4.26 1.62-8.49 2.43-12.69z"/><path d="m279 270 .63-.31-.6.35z"/><path d="m239.19 284.93-.27-.86c-1-1.17.53-3-1-4 3.22-1.5 4.44 1.2 6.13 2.92 0 2.52 5.07 3.63 2 7a15.36 15.36 0 0 0 -6.86-5.06z"/><path d="m212.1 249.92a4.93 4.93 0 0 1 .53 4.33c-.67 1.69.26 5-2.27 4.79-2.87-.2-.9-3.27-1.43-5 2.23-.46 2.97-2.04 3.17-4.12z"/><path d="m213.09 291.05c2.2-2.13 4.44-4.16 7.89-3.05 4.28 1.94 1.15 4 .06 5.95-3.62.14-4.48 4.2-7.45 5.27l-2.19.79a17.17 17.17 0 0 0 .43-2.34c.09-1.94 2.44-3.37 1.24-5.58l-.16-.15a4.39 4.39 0 0 1 .18-.89z"/><path d="m221 304 .13-.45z"/><path d="m208 294.09-1-1c.67.03 1.07.3 1 1z"/></g><path d="m28.55 150.5-.24.09.09-.24z"/><path d="m307 249c-3.08 0-2.51-4.45-6-4.65-2.25-.13-2.9 0-3.23 2.08-.14.84.38 2.38-1.05 2.36-1.14 0-1.55-1.82-1.32-2.34 1-2.17-4.08-7.67 3.53-6.43 1.52.25-.07-4.08 2.94-4.1 1.13.93 2.09 2.12 3.66 2.38 1.25.22 3.22-1 3.61.29s-1.86.77-2.6 1.43c-1.53 1.38.46 1 .74 1a2.94 2.94 0 0 1 2.62 1.93c1.68 3.31-.9 4.57-2.9 6.05z" transform="translate(-184.51 -141.58)"/><path d="m295 236c.76-1.59 1.2-3.2.2-4.86-.94-.4-.37-1.75-1.33-2.14h-.88c.87-2.12 2.52-1.22 4-1 .24 1.47 5.93-.68 2.34 3.56-.33.39 1.15.2 1.71-.22 1.12-.85 1.22-2.72 2.93-3-.79 1.8.86 4-.91 5.65-2.91-.29-4.89 3.18-8.06 2.01z" transform="translate(-184.51 -141.58)"/><path d="m202.21 235.43c-.75-.09-1.28-.56-1-1.24s.94-1.86 1.67-2.13c.92-.35 1.33.67 1.21 1.52a2.08 2.08 0 0 1 -1.88 1.85z" transform="translate(-184.51 -141.58)"/><path d="m200.14 223.9c.48.76 1 1.53 1.41 2.31 0 0-.5.43-.61.37-1-.52-.87-1.56-1.1-2.44z" transform="translate(-184.51 -141.58)"/><path d="m57.4 150.49-.08-.24.23.08z"/><path d="m198 224-.33-.6z" transform="translate(-184.51 -141.58)"/><path d="m284 202c0-.16 0-.32 0-.48.12-1.77.25-3.54.37-5.3.12 0 .34.07.35.13a7.31 7.31 0 0 1 -.72 5.65z" transform="translate(-184.51 -141.58)"/><path d="m206 265 4 1 1 2c-2.67.63-5.25 1.19-5-3z" transform="translate(-184.51 -141.58)"/><path d="m206 278.14-4.24-1c-.33.3-.57.22-.74-.17a5.79 5.79 0 0 1 4.81-.57c1.17.34 1.17 1.06.17 1.74z" transform="translate(-184.51 -141.58)"/><path d="m201 277c.24.07.49.12.74.17a2.2 2.2 0 0 1 -2.74-.17z" transform="translate(-184.51 -141.58)"/><path d="m203 268h1.05c-.43 1.15-.75.13-1.05 0z" transform="translate(-184.51 -141.58)"/><path d="m210 286a6.48 6.48 0 0 1 -4 1c1.16-1 2.61-.93 4-1z" transform="translate(-184.51 -141.58)"/><path d="m256.08 266.12a4.85 4.85 0 0 1 -1.15 3.11 5 5 0 0 1 -2.93-4.23 7.49 7.49 0 0 1 4.08 1.12z" transform="translate(-184.51 -141.58)"/><path d="m210 265v1z" transform="translate(-184.51 -141.58)"/><path d="m215 269.94-.89 1c-.35-.44-1.07-1.17-1-1.26.72-.87 1.31-.12 1.89.26z" transform="translate(-184.51 -141.58)"/><path d="m293.89 229c1.28.19 1.34 1.14 1.33 2.14-2.66.66-.6-1.61-1.33-2.14z" transform="translate(-184.51 -141.58)"/><path d="m237.92 280.05c2 .94 1.29 2.52 1 4-.33-1.32-.67-2.66-1-4z" transform="translate(-184.51 -141.58)"/><path d="m30.36 153.32.34-.11-.11.33z"/><path d="m30.59 153.54-.3.08.08-.3z"/></g></svg>